<svg viewBox="0 0 512 512" xmlns="http://www.w3.org/2000/svg" xmlns:xlink="http://www.w3.org/1999/xlink"><linearGradient id="a" gradientTransform="matrix(1 0 0 -1 0 -15338)" gradientUnits="userSpaceOnUse" x1="0" x2="512" y1="-15594" y2="-15594"><stop offset="0" stop-color="#31d8ff"/><stop offset="1" stop-color="#ff80ff"/></linearGradient><path d="m512 256c0 141.386719-114.613281 256-256 256s-256-114.613281-256-256 114.613281-256 256-256 256 114.613281 256 256zm0 0" fill="url(#a)"/><g fill="#fff"><path d="m329.949219 411h-170.933594c-61.753906-85.8125-61.753906-224.1875 0-310h170.933594c8.285156 0 15-6.714844 15-15s-6.714844-15-15-15h-178.453125c-4.636719 0-9.015625 2.144531-11.855469 5.8125-36.523437 47.136719-56.640625 110.773438-56.640625 179.1875s20.117188 132.050781 56.640625 179.1875c2.84375 3.667969 7.21875 5.8125 11.855469 5.8125h178.453125c8.285156 0 15-6.714844 15-15 0-8.28125-6.714844-15-15-15zm0 0"/><path d="m449.601562 265.507812c4.828126-5.875 4.375-14.746093-.996093-20.117187l-55.730469-55.730469c-5.855469-5.855468-15.355469-5.855468-21.214844 0-5.855468 5.859375-5.855468 15.355469 0 21.214844l30.128906 30.125h-179.890624c-8.285157 0-15 6.714844-15 15s6.714843 15 15 15h179.890624l-30.128906 30.125c-5.855468 5.859375-5.855468 15.355469 0 21.214844 2.929688 2.929687 6.769532 4.394531 10.609375 4.394531 3.835938 0 7.675781-1.464844 10.605469-4.394531l55.730469-55.730469c.351562-.351563.679687-.71875.996093-1.101563.140626-.171874-.316406.382813 0 0zm0 0"/></g></svg>